<svg width="163" height="162" viewBox="0 0 163 162" fill="none" xmlns="http://www.w3.org/2000/svg">
<path d="M75.3263 159C76.0875 147.56 80.2849 136.536 78.3369 125.016C77.1439 117.962 75.4085 110.777 70.8106 104.41C66.0478 97.8159 60.2072 91.324 53.4687 85.6902C40.4178 74.7787 24.0793 65.7917 13.3597 53.4796C8.38271 47.7632 5.00934 41.4464 3.76369 34.7594C2.70087 29.0538 2.17659 22.1962 6.14702 16.9594C8.64802 13.6607 12.7794 10.8175 16.1821 7.98084C18.6788 5.8994 21.5621 4.64618 25.2137 3.85071C38.589 0.936978 51.9827 6.06372 63.1902 10.8315C74.8808 15.8049 78.7448 24.197 83.9816 32.8065C85.1869 34.788 86.1962 36.7832 87.1803 38.8222C87.7976 40.1013 88.3192 41.0291 88.027 38.9793C86.7535 30.0465 89.5146 19.9701 98.5325 13.3455C103.783 9.4885 111.836 8.28296 119.042 7.77882C127.127 7.21315 136.328 7.07797 143.816 9.68677C155.887 13.8925 160.123 23.7472 159.997 32.7167C159.852 43.1158 152.326 54.7356 143.502 62.8847C136.489 69.3621 127.408 75.0689 119.01 80.6397C113.537 84.2709 107.836 87.7229 102.296 91.3018C92.0513 97.919 81.0088 103.949 70.2461 110.112" stroke="black" stroke-width="5" stroke-linecap="round"/>
<path d="M61.5749 48.4073C57.7566 48.1048 55.9702 43.9097 51.4647 44.0015C45.9792 44.1132 40.2193 49.6771 39.2327 53.1247C37.462 59.3119 46.1605 63.5387 53.0249 65.5412C58.2367 67.0616 65.4429 64.4514 70 62.8265" stroke="black" stroke-width="3" stroke-linecap="round"/>
<path d="M79 49C79 53.3852 81.1505 57.0705 83.6439 61.0801C84.1343 61.8688 86.8021 66 85.761 66" stroke="black" stroke-width="3" stroke-linecap="round"/>
<path d="M75 59C77.2645 59 79.4032 58.0424 81.7302 58C84.8915 57.9424 87.8792 57.3413 91 57" stroke="black" stroke-width="3" stroke-linecap="round"/>
<path d="M107 49C105.582 49.2552 104.572 55.6238 104.099 56.7778C103.313 58.6932 102 60.9651 102 63" stroke="black" stroke-width="3" stroke-linecap="round"/>
<path d="M108 48C110.246 48.2005 113.6 53.5303 114.72 54.8222C117.32 57.8221 118.905 61.2371 122 64" stroke="black" stroke-width="3" stroke-linecap="round"/>
<path d="M107 57C109.467 56.2566 112.442 55 115 55" stroke="black" stroke-width="3" stroke-linecap="round"/>
</svg>
